<svg width="270" height="64" viewBox="0 0 270 64" fill="none" xmlns="http://www.w3.org/2000/svg">
<path d="M14.9025 4.33263C14.4279 4.63709 14.1866 5.20214 14.2716 5.75895L17.8731 29.1755L18.8935 37.2124C19.1047 38.8801 21.5212 38.8746 21.7269 37.2069L22.7144 29.1755L26.9495 1.64728C27.1058 0.640613 26.1897 -0.187756 25.194 0.0371656C21.4828 0.876508 18.0102 2.3385 14.9025 4.33263Z" fill="#E30000"/>
<path d="M39.6054 0.0371656C38.6125 -0.187756 37.6963 0.640613 37.8499 1.64728L42.085 29.1755L43.0725 37.2069C43.2782 38.8746 45.6948 38.8801 45.906 37.2124L46.9264 29.1755L50.5278 5.75895C50.6129 5.20214 50.3715 4.63709 49.897 4.33263C46.7947 2.3385 43.3194 0.876508 39.6054 0.0371656Z" fill="#E30000"/>
<path d="M58.112 16.4289L51.2684 54.7479C51.0297 56.0838 52.6069 56.9588 53.6328 56.0673C60.4737 50.1261 64.8021 41.3678 64.8021 31.5975C64.8021 25.9168 63.3264 20.59 60.7535 15.9544C60.1117 14.7941 58.3452 15.1233 58.112 16.4289Z" fill="#E30000"/>
<path d="M34.8217 34.0195L33.8178 25.9854C33.6093 24.3177 31.1928 24.3177 30.9843 25.9854L29.9804 34.0195L25.6932 61.8824C25.5752 62.6422 26.0772 63.3745 26.8343 63.5089C28.6446 63.8271 30.5016 63.9999 32.4024 63.9999C34.3033 63.9999 36.1603 63.8271 37.9706 63.5089C38.7277 63.3745 39.2269 62.6422 39.1117 61.8824L34.8217 34.0195Z" fill="#E30000"/>
<path d="M6.69005 16.4289C6.4569 15.1233 4.69319 14.7941 4.04859 15.9544C1.47571 20.5927 0 25.9168 0 31.5975C0 41.3706 4.32837 50.1288 11.1693 56.0673C12.1952 56.956 13.7723 56.0838 13.5337 54.7479L6.69005 16.4289Z" fill="#E30000"/>
<path d="M129.859 19.2844L129.182 19.3009H125.133C123.836 19.3009 123.098 19.7068 122.56 20.5709C122.456 20.7903 122.363 21.0289 122.272 21.3115L117.642 38.3616C117.568 38.5427 117.461 38.614 117.352 38.614H117.171C117.064 38.614 116.951 38.5427 116.88 38.3616L111.753 21.6927C111.207 19.9153 110.299 19.2981 108.484 19.2981H104.199C102.71 19.2981 101.695 19.8056 101.152 21.6927L96.1815 38.3616C96.1074 38.5427 95.9977 38.614 95.9264 38.614H95.7426C95.5973 38.614 95.5259 38.5427 95.4903 38.3616L91.0001 22.458L90.6901 21.3636C90.5996 21.0811 90.5091 20.8616 90.4103 20.6422C89.8809 19.737 89.1486 19.3173 87.8704 19.2981H83.2211L83.5365 20.2801L89.7548 41.4831C90.5201 44.1355 91.3512 44.7143 93.2027 44.7143H98.1427C99.7391 44.7143 100.502 44.0615 101.3 41.4831L106.158 25.6508C106.193 25.4698 106.267 25.3985 106.413 25.3985H106.561C106.706 25.3985 106.739 25.4698 106.778 25.6508L111.578 41.4831C112.343 44.0615 113.141 44.7143 114.738 44.7143H119.82C121.345 44.7143 122.215 44.0615 123.013 41.4831L129.539 20.2801L129.859 19.2844Z" fill="#1D202D
"/>
<path d="M269.454 19.2844L268.776 19.3009H264.728C263.43 19.3009 262.692 19.7068 262.155 20.5709C262.05 20.7903 261.957 21.0289 261.867 21.3115L257.237 38.3616C257.163 38.5427 257.056 38.614 256.946 38.614H256.765C256.658 38.614 256.545 38.5427 256.474 38.3616L251.347 21.6927C250.802 19.9153 249.894 19.2981 248.078 19.2981H243.793C242.304 19.2981 241.289 19.8056 240.746 21.6927L235.776 38.3616C235.702 38.5427 235.592 38.614 235.521 38.614H235.337C235.191 38.614 235.12 38.5427 235.085 38.3616L230.594 22.458L230.284 21.3636C230.194 21.0811 230.103 20.8616 230.005 20.6422C229.475 19.737 228.743 19.3173 227.465 19.2981H222.815L223.131 20.2801L229.349 41.4831C230.114 44.1355 230.945 44.7143 232.8 44.7143H237.74C239.336 44.7143 240.099 44.0615 240.897 41.4831L245.755 25.6508C245.79 25.4698 245.864 25.3985 246.01 25.3985H246.158C246.303 25.3985 246.336 25.4698 246.374 25.6508L251.175 41.4831C251.94 44.0615 252.738 44.7143 254.335 44.7143H259.417C260.942 44.7143 261.812 44.0615 262.61 41.4831L269.135 20.2801L269.454 19.2844Z" fill="#1D202D
"/>
<path d="M131.417 19.2899V20.2362L131.431 43.7625V44.6979L132.369 44.7116H138.033L138.02 20.2445L138.033 19.2981H137.079L131.417 19.2899Z" fill="#1D202D
"/>
<path d="M141.303 19.2953V35.1277C141.303 42.0975 144.139 44.7115 151.584 44.7115H162.577V41.0579C162.531 39.4999 161.7 38.6441 160.172 38.5673H151.83C148.671 38.5673 147.908 37.7334 147.908 34.4638V21.753C147.85 20.1841 146.992 19.331 145.412 19.2871H142.244L141.303 19.2953Z" fill="#1D202D
"/>
<path d="M164.736 19.2953V35.1277C164.736 42.0975 167.572 44.7115 175.017 44.7115H186.01V41.0579C185.964 39.4999 185.133 38.6441 183.605 38.5673H175.264C172.106 38.5673 171.341 37.7334 171.341 34.4638V21.753C171.284 20.1841 170.425 19.331 168.845 19.2871H165.677L164.736 19.2953Z" fill="#1D202D
"/>
<path d="M198.373 25.2915H209.194C212.351 25.2915 213.116 26.0897 213.116 29.395V34.623C213.119 37.9283 212.356 38.7649 209.199 38.7649H198.378C195.219 38.7649 194.456 37.9283 194.456 34.623V29.395C194.453 26.0897 195.216 25.2915 198.373 25.2915ZM198.115 19.3009C190.673 19.3009 187.843 21.9149 187.845 28.8875V35.1332C187.845 42.103 190.679 44.7171 198.123 44.7171H209.452C216.896 44.7171 219.727 42.103 219.727 35.1332V28.8875C219.727 21.9177 216.888 19.3009 209.446 19.3009H198.115Z" fill="#1D202D
"/>
</svg>
